<?xml version="1.0" encoding="UTF-8" standalone="no"?>
<svg
   id="Ebene_1"
   width="272.92001"
   height="244.54506"
   viewBox="0 0 272.92001 244.54505"
   version="1.1"
   sodipodi:docname="logo.svg"
   inkscape:version="1.3.2 (091e20ef0f, 2023-11-25)"
   xmlns:inkscape="http://www.inkscape.org/namespaces/inkscape"
   xmlns:sodipodi="http://sodipodi.sourceforge.net/DTD/sodipodi-0.dtd"
   xmlns="http://www.w3.org/2000/svg"
   xmlns:svg="http://www.w3.org/2000/svg">
  <sodipodi:namedview
     id="namedview46"
     pagecolor="#ffffff"
     bordercolor="#000000"
     borderopacity="0.25"
     inkscape:showpageshadow="2"
     inkscape:pageopacity="0.0"
     inkscape:pagecheckerboard="0"
     inkscape:deskcolor="#d1d1d1"
     inkscape:zoom="0.63847203"
     inkscape:cx="732.21688"
     inkscape:cy="122.94979"
     inkscape:window-width="3840"
     inkscape:window-height="2091"
     inkscape:window-x="0"
     inkscape:window-y="32"
     inkscape:window-maximized="1"
     inkscape:current-layer="Ebene_1" />
  <defs
     id="defs1">
    <style
       id="style1">.cls-1{fill:#4ec1ec;}.cls-1,.cls-2{stroke-width:0px;}.cls-2{fill:#fff;}</style>
  </defs>
  <path
     class="cls-1"
     d="m 113.95,30.48 c 0,16.83 -13.64,30.48 -30.48,30.48 C 66.63,60.96 52.99,47.32 52.99,30.48 52.99,13.64 66.63,0 83.46,0 c 16.83,0 30.48,13.65 30.48,30.48"
     id="path17" />
  <path
     class="cls-1"
     d="m 113.95,214.06 c 0,16.84 -13.64,30.48 -30.48,30.48 -16.84,0 -30.48,-13.64 -30.48,-30.48 0,-16.84 13.64,-30.48 30.48,-30.48 16.84,0 30.48,13.64 30.48,30.48"
     id="path18" />
  <path
     class="cls-1"
     d="m 272.92,122.28 c 0,16.84 -13.65,30.48 -30.48,30.48 -16.83,0 -30.48,-13.64 -30.48,-30.48 0,-16.84 13.64,-30.48 30.48,-30.48 16.84,0 30.48,13.64 30.48,30.48"
     id="path19" />
  <path
     class="cls-2"
     d="m 179.03,160.46 c -6.65,-11.19 -10.56,-24.23 -10.56,-38.18 0,-13.95 3.91,-26.99 10.56,-38.18 14.86,-24.97 28.51,-23.99 36.81,-38.36 8.42,-14.58 3.42,-33.21 -11.15,-41.62 -14.58,-8.42 -33.22,-3.42 -41.63,11.16 -8.29,14.37 -0.62,25.7 -14.81,51.05 -12.72,22.72 -36.52,38.2 -66.14,38.2 C 54.36,104.53 47.07,91.84 30.49,91.84 13.91,91.84 0,105.45 0,122.27 c 0,16.82 13.64,30.48 30.48,30.48 16.84,0 22.57,-12.31 51.62,-12.69 29.66,0 53.5,15.44 66.15,38.19 14.12,25.39 6.52,36.68 14.81,51.05 8.42,14.58 27.05,19.57 41.63,11.16 14.58,-8.42 19.57,-27.05 11.15,-41.62 -8.3,-14.37 -21.95,-13.39 -36.81,-38.37"
     id="path20" />
</svg>
