<?xml version="1.0" encoding="UTF-8"?><svg id="Ebene_1" xmlns="http://www.w3.org/2000/svg" width="1466" height="390.33" viewBox="0 0 1466 390.33"><defs><style>.cls-1{fill:#41404a;}.cls-1,.cls-2{stroke-width:0px;}.cls-2{fill:#4ec1ec;}</style></defs><path class="cls-1" d="M.31,389.5v-212.51h14.17l92.09,104.84,92.23-104.84h14.17v212.51h-42.5l-.14-123.26-63.76,70.84-62.58-70.01v123.26s-43.68-.83-43.68-.83Z"/><path class="cls-1" d="M240.54,176.84h42.36v212.65h-42.36v-212.65Z"/><path class="cls-1" d="M329.8,358.97c-20.36-20.26-30.53-45.64-30.53-76.15.09-29.84,10.29-54.95,30.6-75.3,20.3-20.35,45.48-30.53,75.52-30.53s56.34,9.44,78.06,28.33l-28.33,31.03c-14.45-11.34-31.03-17-49.73-17-19.08.09-34.45,6.04-46.12,17.85-11.67,11.81-17.5,26.92-17.5,45.34.09,19.74,6,35.42,17.71,47.04,11.71,11.62,27.11,17.43,46.19,17.43,15.3,0,27.06-3.02,35.28-9.07v-36.41l-28.33.14v-39.67h70.84v99.17c-21.63,18.89-47.65,28.33-78.06,28.33-30.04-.09-55.23-10.27-75.58-30.53h0Z"/><path class="cls-1" d="M639.37,296.84l52.99,92.66h-48.74l-50.86-87.84h-38.82v87.84h-42.5v-212.51h92.66c49.59,0,74.38,20.4,74.38,61.2,0,30.7-13.03,50.25-39.1,58.65h0ZM553.94,261.99h59.5c17.09-.28,25.88-8.08,26.35-23.38-.47-13.98-9.11-21.25-25.92-21.82h-59.93v45.2Z"/><path class="cls-1" d="M688.47,389.5l85.01-212.51h42.5l84.87,212.37-45.2.14-12.75-32.59h-96.34l-12.75,32.59h-45.34ZM795.86,233.65l-32.3,80.75h63.76l-31.45-80.75Z"/><path class="cls-1" d="M1049.74,176.99v39.67h-70.84v172.84h-42.5v-172.84h-70.84v-39.67h184.18,0Z"/><path class="cls-1" d="M1086.23,358.97c-20.31-20.35-30.46-45.59-30.46-75.73s10.15-55.49,30.46-75.8c20.3-20.3,45.57-30.46,75.8-30.46s55.49,10.16,75.8,30.46c20.3,20.31,30.46,45.57,30.46,75.8s-10.15,55.49-30.46,75.8c-20.31,20.31-45.57,30.46-75.8,30.46s-55.49-10.18-75.8-30.53h0ZM1162.17,349.83c18.8,0,34.1-6.38,45.9-19.13,11.81-12.75,17.71-28.57,17.71-47.46s-5.9-34.71-17.71-47.46c-11.81-12.75-27.2-19.13-46.19-19.13s-34.1,6.38-45.9,19.13c-11.81,12.75-17.71,28.57-17.71,47.46s5.9,34.71,17.71,47.46,27.2,19.13,46.19,19.13Z"/><path class="cls-1" d="M1413.01,296.84l52.99,92.66h-48.74l-50.86-87.84h-38.82v87.84h-42.5v-212.51h92.66c49.59,0,74.38,20.4,74.38,61.2,0,30.7-13.03,50.25-39.1,58.65h0ZM1327.58,261.99h59.5c17.09-.28,25.88-8.08,26.35-23.38-.47-13.98-9.11-21.25-25.92-21.82h-59.93v45.2Z"/><path class="cls-1" d="M654.68,131.91c-36.9,0-56.73-27.76-56.73-64.49S617.26,0,655.37,0c27.59,0,43.46,14.49,48.45,42.07h-16.38c-3.97-19.14-14.31-27.94-33.97-27.94-24.31,0-39.49,20.87-39.49,53.11s15.86,50.52,40.87,50.52c21.21,0,31.21-11.04,35.01-34.83h16.55c-3.79,32.76-21.04,48.97-51.73,48.97Z"/><path class="cls-1" d="M770.2,79.49v49.32h-16.04v-49.32L705.71,3.1h19.83l36.9,61.21,35.87-61.21h19.14l-47.25,76.39h0Z"/><path class="cls-1" d="M878.15,128.81h-56.73V3.1h51.04c23.79,0,37.25,13.62,37.25,31.9,0,12.76-6.04,22.07-17.41,27.42,16.04,6.21,22.93,15.35,22.93,30.52,0,20.69-14.49,35.87-37.07,35.87ZM868.49,17.24h-31.04v40h31.04c17.76,0,25.17-7.24,25.17-20s-7.41-20-25.17-20h0ZM876.6,71.39h-39.14v43.28h39.14c15.17,0,22.59-9.48,22.59-21.56s-7.41-21.73-22.59-21.73h0Z"/><path class="cls-1" d="M926.08,128.81V3.1h87.08v14.14h-71.04v40.18h68.46v14.14h-68.46v43.11h74.15v14.14h-90.18Z"/><path class="cls-1" d="M1112.48,128.81c-2.24-5.17-3.79-12.76-3.62-20.52l.17-11.21c.17-15.52-6.55-22.42-20.69-22.42h-41.38v54.14h-16.04V3.1h57.94c24.66,0,38.28,11.9,38.28,33.62,0,14.31-5.69,23.11-19.83,30,13.62,5.86,16.72,12.07,17.07,32.76.17,16.72,1.55,21.21,7.59,25.35v3.97h-19.49ZM1085.76,17.24h-38.8v43.28h38.8c17.07,0,24.66-6.73,24.66-21.56s-6.73-21.73-24.66-21.73h0Z"/><path class="cls-1" d="M1185.42,17.24v111.57h-16.04V17.24h-41.38V3.1h98.63v14.14h-41.21,0Z"/><path class="cls-1" d="M1234.57,128.81V3.1h87.08v14.14h-71.04v40.18h68.46v14.14h-68.46v43.11h74.15v14.14h-90.18Z"/><path class="cls-1" d="M1388.38,131.91c-36.9,0-56.73-27.76-56.73-64.49S1350.96,0,1389.07,0c27.59,0,43.46,14.49,48.45,42.07h-16.38c-3.97-19.14-14.31-27.94-33.97-27.94-24.31,0-39.49,20.87-39.49,53.11s15.86,50.52,40.87,50.52c21.21,0,31.21-11.04,35.01-34.83h16.55c-3.79,32.76-21.04,48.97-51.73,48.97h0Z"/><path class="cls-2" d="M417.88,51.29l-9.12-43.94,157.51,51.4-126.01,107.77-9.12-48.91S215.4,162.72,2.34,388.21C-21.11,413.03,132.69,106.83,417.88,51.29Z"/><path class="cls-1" d="M13.65,176.99l92.09,104.84,92.23-104.84h14.17v212.51h-42.5l-.14-123.26-63.76,70.84-63.76-70.84-28.33-89.26Z"/></svg>