<?xml version="1.0" standalone="no"?>
<!DOCTYPE svg PUBLIC "-//W3C//DTD SVG 20010904//EN"
 "http://www.w3.org/TR/2001/REC-SVG-20010904/DTD/svg10.dtd">
<svg version="1.0" xmlns="http://www.w3.org/2000/svg"
 width="760.000000pt" height="760.000000pt" viewBox="0 0 760.000000 760.000000"
 preserveAspectRatio="xMidYMid meet">
<metadata>
Created by potrace 1.14, written by Peter Selinger 2001-2017
</metadata>
<g transform="translate(0.000000,760.000000) scale(0.100000,-0.100000)"
fill="#000000" stroke="none">
<path d="M2150 7180 c-116 -26 -108 -24 -190 -64 -85 -42 -179 -108 -232 -163
-51 -52 -98 -107 -98 -115 0 -4 -6 -13 -13 -20 -32 -34 -93 -171 -116 -263
-28 -112 -31 -249 -7 -375 4 -24 26 -104 33 -120 4 -8 7 -17 8 -20 0 -3 11
-27 24 -54 54 -115 141 -223 241 -299 30 -23 57 -45 60 -48 9 -11 162 -83 183
-86 12 -2 24 -7 27 -11 3 -4 10 -8 16 -9 6 -1 24 -5 40 -8 257 -53 501 -3 700
143 38 28 88 71 110 95 50 53 114 140 114 156 0 6 4 11 8 11 21 0 96 210 107
301 15 109 7 228 -20 334 -7 28 -15 56 -16 64 -10 38 -91 186 -132 238 -121
158 -266 252 -482 313 -74 21 -271 21 -365 0z"/>
<path d="M5157 7194 c-2 -2 -20 -6 -41 -10 -21 -3 -55 -12 -77 -19 -22 -8 -41
-14 -44 -15 -3 0 -7 -1 -10 -1 -3 -1 -8 -2 -12 -3 -16 -4 -157 -78 -170 -89
-7 -7 -42 -34 -77 -62 -36 -27 -65 -53 -66 -57 0 -4 -14 -22 -31 -40 -17 -18
-43 -51 -57 -73 -28 -44 -92 -169 -96 -188 -2 -7 -6 -19 -9 -27 -20 -51 -37
-139 -52 -275 -4 -33 -9 -71 -12 -85 -2 -14 -5 -32 -5 -40 0 -31 -24 -205 -28
-205 -1 0 -3 -15 -6 -34 -2 -19 -9 -53 -15 -75 -6 -23 -11 -43 -11 -46 0 -3
-5 -16 -10 -30 -5 -14 -11 -32 -13 -40 -11 -49 -66 -184 -125 -306 -84 -171
-228 -390 -320 -485 -8 -9 -24 -27 -36 -40 -79 -90 -244 -229 -376 -317 -76
-51 -246 -142 -323 -173 -44 -18 -77 -31 -85 -34 -3 -1 -12 -5 -20 -8 -8 -3
-67 -22 -130 -41 -112 -33 -148 -42 -220 -51 -19 -3 -44 -7 -55 -9 -124 -27
-544 -28 -676 -1 -13 3 -39 8 -58 11 -41 7 -50 9 -126 29 -101 27 -215 69
-340 125 -268 120 -412 162 -565 163 -123 1 -266 -29 -371 -79 -51 -25 -162
-95 -185 -118 -6 -6 -26 -25 -45 -41 -19 -17 -46 -46 -60 -65 -15 -19 -36 -46
-48 -59 -11 -13 -18 -28 -15 -32 3 -5 1 -9 -3 -9 -16 0 -89 -157 -98 -210 -3
-18 -9 -38 -12 -43 -25 -41 -23 -356 2 -398 4 -5 9 -21 11 -36 18 -98 111
-251 219 -358 141 -140 299 -219 490 -242 114 -14 264 -2 342 28 16 6 28 9 28
8 0 -3 76 22 110 36 17 8 62 28 100 45 39 18 75 33 80 35 6 1 28 10 50 20 137
61 331 120 459 141 21 3 48 8 60 10 125 25 515 24 645 -1 10 -2 34 -6 52 -9
172 -29 381 -93 512 -157 31 -15 58 -28 60 -27 3 2 141 -74 147 -82 3 -3 22
-14 42 -25 21 -11 38 -23 38 -27 0 -5 5 -8 11 -8 12 0 157 -109 216 -163 97
-88 192 -192 274 -302 33 -44 63 -85 68 -90 4 -6 33 -54 64 -107 86 -145 182
-357 213 -468 22 -81 55 -221 58 -245 2 -16 6 -48 10 -70 8 -45 14 -98 20
-166 5 -45 13 -107 21 -160 3 -14 7 -41 9 -60 8 -53 41 -160 64 -206 12 -22
18 -43 15 -47 -4 -3 -1 -6 5 -6 7 0 12 -5 12 -11 0 -20 84 -134 145 -194 130
-130 283 -208 475 -241 45 -8 205 -8 250 0 49 9 75 14 75 16 0 1 9 3 20 5 59
10 181 68 265 126 146 100 263 258 316 425 25 76 29 95 40 179 3 28 8 53 10
57 2 4 0 9 -5 13 -7 4 -7 15 -1 31 6 14 7 30 4 36 -4 6 -8 31 -11 57 -14 160
-99 340 -221 471 -35 39 -137 125 -226 192 -88 67 -179 135 -201 152 -61 48
-227 214 -280 281 -26 33 -53 63 -59 67 -6 5 -7 8 -1 8 6 0 5 3 -1 8 -15 9
-147 211 -174 266 -12 22 -25 48 -30 56 -62 100 -172 423 -194 570 -2 19 -7
46 -10 60 -21 107 -29 397 -14 517 11 93 18 145 23 163 2 8 6 31 9 50 3 20 21
89 41 155 42 143 39 133 54 170 7 17 19 46 26 65 28 76 168 331 217 395 4 6
29 39 55 75 70 96 79 105 188 215 120 119 110 111 327 273 95 71 202 161 238
199 69 74 100 111 100 117 0 3 15 31 34 63 149 251 145 582 -9 848 -40 70
-199 245 -221 245 -7 0 -14 3 -16 8 -9 21 -181 112 -212 112 -7 0 -16 3 -20 7
-17 18 -130 35 -248 38 -70 1 -129 1 -131 -1z"/>
<path d="M6690 4640 c0 -3 -24 -6 -53 -7 -28 -1 -90 -14 -136 -28 -82 -26
-213 -89 -219 -106 -2 -5 -9 -9 -17 -9 -13 0 -144 -124 -180 -171 -85 -109
-147 -248 -171 -379 -17 -99 -7 -296 19 -370 2 -8 13 -37 22 -65 17 -48 73
-165 85 -175 3 -3 22 -27 42 -55 45 -61 122 -134 197 -184 49 -33 77 -47 176
-92 24 -10 125 -37 175 -46 137 -23 377 15 495 80 11 6 29 15 40 22 193 105
348 305 406 520 39 146 31 387 -17 492 -8 17 -14 35 -14 40 0 11 -50 108 -83
160 -35 56 -126 152 -189 201 -54 41 -208 129 -208 118 0 -4 -12 0 -27 7 -30
15 -99 32 -173 43 -56 8 -170 11 -170 4z"/>
<path d="M2248 2085 c-2 -1 -23 -5 -48 -8 -25 -4 -56 -9 -70 -12 -14 -3 -36
-8 -50 -11 -32 -6 -210 -92 -228 -110 -7 -8 -18 -14 -23 -14 -23 0 -187 -181
-231 -255 -52 -89 -104 -232 -114 -316 -17 -146 1 -319 43 -401 7 -15 13 -30
13 -33 -1 -7 55 -122 73 -149 42 -66 121 -153 176 -194 20 -15 38 -29 41 -32
34 -36 226 -124 295 -136 11 -2 34 -6 50 -11 37 -9 259 -9 300 0 17 3 44 9 60
13 68 14 262 106 285 133 3 4 25 22 50 41 25 19 56 48 69 64 14 15 30 33 36
40 26 25 83 115 113 176 30 61 64 171 77 250 7 38 7 199 1 240 -9 58 -40 168
-57 203 -11 20 -16 37 -13 37 4 0 0 8 -8 18 -8 9 -27 39 -42 66 -70 122 -201
243 -340 313 -42 21 -160 66 -188 72 -5 0 -9 1 -10 2 -23 7 -253 20 -260 14z"/>
</g>
</svg>
